<?xml version="1.0" encoding="UTF-8"?>
<svg xmlns="http://www.w3.org/2000/svg" viewBox="-360 -300 720 600">
<rect x="-10000" y="-10000" width="20000" height="20000" fill="#050912"/>
<path d="M-2.4,-10.9 L-3.7,-13.7 L-5.6,-17.6 L-7.5,-21.6 L-9.1,-25.2 L-10.7,-28.8 L-12.1,-32.5 L-13.2,-36.3 L-14.2,-40.1 L-15.2,-43.9 L-16.5,-47.7 L-17.7,-51.4 L-18.7,-55.2 L-19.1,-59.2 L-19.2,-63.1 L-19.5,-67.0 L-20.3,-71.3 L-21.3,-75.6 L-22.1,-78.6" fill="none" stroke="#bcd4ff" stroke-linecap="round" stroke-width="3.8" opacity="0.95"/>
<path d="M-19.6,-67.5 L-19.7,-69.5 L-19.9,-72.5 L-20.1,-75.4 L-20.2,-78.0 L-20.4,-80.6 L-20.7,-83.2 L-21.2,-85.8 L-21.8,-88.4 L-22.2,-90.9 L-22.2,-93.5 L-22.0,-96.2 L-21.9,-98.8 L-22.1,-101.4 L-22.4,-104.0 L-22.6,-106.6 L-22.5,-109.5 L-22.3,-112.5 L-22.2,-114.5" fill="none" stroke="#bcd4ff" stroke-linecap="round" stroke-width="2.3" opacity="0.80"/>
<path d="M-22.1,-94.6 L-23.3,-95.4 L-24.9,-96.6 L-26.6,-97.7 L-28.2,-98.6 L-29.9,-99.4 L-31.5,-100.1 L-33.3,-100.7 L-35.1,-101.1 L-36.9,-101.6 L-38.7,-101.9 L-40.5,-102.3 L-42.2,-102.9 L-43.8,-103.7 L-45.4,-104.7 L-47.0,-105.6 L-48.8,-106.4 L-50.7,-107.1 L-52.1,-107.6" fill="none" stroke="#bcd4ff" stroke-linecap="round" stroke-width="1.3" opacity="0.65"/>
<path d="M-48.2,-106.1 L-49.0,-106.4 L-50.2,-106.8 L-51.3,-107.2 L-52.4,-107.4 L-53.5,-107.6 L-54.6,-107.8 L-55.7,-108.0 L-56.8,-108.1 L-57.9,-108.2 L-59.0,-108.2 L-60.1,-108.1 L-61.2,-108.1 L-62.3,-108.2 L-63.4,-108.4 L-64.4,-108.7 L-65.6,-109.0 L-66.8,-109.4 L-67.6,-109.7" fill="none" stroke="#bcd4ff" stroke-linecap="round" stroke-width="0.8" opacity="0.50"/>
<path d="M-22.5,-109.3 L-22.2,-110.7 L-21.9,-112.7 L-21.6,-114.7 L-21.6,-116.6 L-21.8,-118.4 L-21.9,-120.2 L-21.8,-122.1 L-21.8,-123.9 L-21.7,-125.8 L-21.5,-127.6 L-21.4,-129.4 L-21.2,-131.3 L-21.3,-133.1 L-21.4,-134.9 L-21.4,-136.8 L-21.2,-138.8 L-20.9,-140.8 L-20.7,-142.3" fill="none" stroke="#bcd4ff" stroke-linecap="round" stroke-width="1.3" opacity="0.65"/>
<path d="M-21.8,-124.2 L-21.2,-124.8 L-20.3,-125.7 L-19.4,-126.4 L-18.5,-127.0 L-17.5,-127.5 L-16.6,-128.1 L-15.7,-128.7 L-14.9,-129.4 L-14.1,-130.1 L-13.4,-130.9 L-12.7,-131.8 L-12.0,-132.6 L-11.2,-133.2 L-10.3,-133.9 L-9.4,-134.6 L-8.6,-135.4 L-7.8,-136.3 L-7.2,-136.9" fill="none" stroke="#bcd4ff" stroke-linecap="round" stroke-width="0.8" opacity="0.50"/>
<path d="M-20.9,-140.6 L-21.4,-141.3 L-22.1,-142.3 L-22.7,-143.3 L-23.4,-144.1 L-24.2,-144.9 L-24.8,-145.7 L-25.5,-146.6 L-26.1,-147.5 L-26.7,-148.4 L-27.5,-149.2 L-28.3,-149.9 L-29.2,-150.5 L-30.1,-151.1 L-31.1,-151.5 L-32.0,-152.0 L-33.0,-152.7 L-34.0,-153.4 L-34.7,-153.9" fill="none" stroke="#bcd4ff" stroke-linecap="round" stroke-width="0.8" opacity="0.50"/>
<path d="M-19.0,-58.5 L-20.8,-59.8 L-23.4,-61.7 L-25.9,-63.7 L-28.1,-65.7 L-30.1,-67.7 L-32.0,-69.9 L-33.6,-72.3 L-34.9,-74.9 L-36.4,-77.4 L-38.1,-79.7 L-39.9,-82.0 L-41.7,-84.3 L-43.4,-86.5 L-45.2,-88.8 L-46.8,-91.2 L-48.2,-94.1 L-49.5,-97.0 L-50.4,-99.1" fill="none" stroke="#bcd4ff" stroke-linecap="round" stroke-width="2.3" opacity="0.80"/>
<path d="M-44.0,-87.3 L-43.3,-88.6 L-42.4,-90.6 L-41.6,-92.6 L-41.1,-94.5 L-40.8,-96.4 L-40.5,-98.4 L-40.3,-100.3 L-40.2,-102.3 L-40.0,-104.2 L-39.8,-106.1 L-39.6,-108.1 L-39.5,-110.0 L-39.6,-112.0 L-39.8,-113.9 L-40.1,-115.9 L-40.5,-118.0 L-41.1,-120.1 L-41.4,-121.5" fill="none" stroke="#bcd4ff" stroke-linecap="round" stroke-width="1.3" opacity="0.65"/>
<path d="M-40.0,-104.9 L-40.6,-105.5 L-41.6,-106.3 L-42.5,-107.2 L-43.2,-108.0 L-44.0,-108.9 L-44.8,-109.7 L-45.5,-110.5 L-46.3,-111.3 L-47.2,-112.1 L-48.1,-112.8 L-49.1,-113.3 L-50.1,-113.9 L-51.1,-114.4 L-52.2,-114.8 L-53.2,-115.3 L-54.2,-116.1 L-55.1,-116.9 L-55.8,-117.5" fill="none" stroke="#bcd4ff" stroke-linecap="round" stroke-width="0.8" opacity="0.50"/>
<path d="M-39.6,-108.2 L-39.7,-109.2 L-39.9,-110.7 L-40.0,-112.2 L-40.0,-113.5 L-39.9,-114.8 L-39.7,-116.2 L-39.4,-117.5 L-39.0,-118.7 L-38.5,-120.0 L-38.0,-121.2 L-37.5,-122.5 L-37.1,-123.7 L-36.8,-125.1 L-36.6,-126.4 L-36.5,-127.7 L-36.4,-129.2 L-36.3,-130.7 L-36.2,-131.7" fill="none" stroke="#bcd4ff" stroke-linecap="round" stroke-width="0.8" opacity="0.50"/>
<path d="M-41.2,-83.6 L-42.3,-84.4 L-43.9,-85.4 L-45.6,-86.4 L-47.2,-87.2 L-48.8,-88.0 L-50.3,-88.8 L-51.7,-89.8 L-53.1,-90.8 L-54.6,-91.8 L-56.2,-92.4 L-57.9,-93.0 L-59.5,-93.6 L-61.0,-94.5 L-62.5,-95.4 L-64.0,-96.3 L-65.8,-97.0 L-67.7,-97.5 L-69.0,-97.9" fill="none" stroke="#bcd4ff" stroke-linecap="round" stroke-width="1.3" opacity="0.65"/>
<path d="M-64.9,-96.6 L-65.7,-96.3 L-66.9,-95.7 L-68.0,-95.2 L-69.0,-94.6 L-70.0,-94.1 L-71.0,-93.5 L-72.0,-93.1 L-73.1,-92.6 L-74.1,-92.1 L-75.1,-91.6 L-76.0,-90.9 L-77.0,-90.3 L-78.0,-89.8 L-79.0,-89.4 L-80.0,-88.8 L-81.1,-88.2 L-82.1,-87.4 L-82.8,-86.9" fill="none" stroke="#bcd4ff" stroke-linecap="round" stroke-width="0.8" opacity="0.50"/>
<path d="M-56.9,-92.6 L-57.2,-93.5 L-57.8,-94.6 L-58.2,-95.8 L-58.6,-96.9 L-58.8,-98.1 L-59.2,-99.2 L-59.7,-100.2 L-60.4,-101.1 L-61.0,-102.1 L-61.5,-103.2 L-62.0,-104.2 L-62.5,-105.2 L-62.9,-106.3 L-63.3,-107.4 L-63.8,-108.4 L-64.5,-109.5 L-65.3,-110.5 L-65.9,-111.2" fill="none" stroke="#bcd4ff" stroke-linecap="round" stroke-width="0.8" opacity="0.50"/>
<path d="M4.9,-10.1 L6.5,-13.0 L8.8,-17.1 L11.4,-21.1 L14.3,-24.2 L17.4,-27.2 L20.5,-30.1 L23.6,-33.0 L26.7,-35.9 L30.0,-38.6 L33.5,-41.0 L37.3,-43.1 L41.1,-45.0 L45.0,-46.7 L49.0,-48.1 L53.0,-49.7 L57.2,-51.8 L61.3,-54.1 L64.2,-55.7" fill="none" stroke="#bcd4ff" stroke-linecap="round" stroke-width="3.8" opacity="0.95"/>
<path d="M28.9,-37.7 L29.4,-39.4 L30.2,-41.7 L31.0,-43.9 L32.1,-45.8 L33.3,-47.6 L34.4,-49.5 L35.6,-51.3 L36.7,-53.2 L37.7,-55.1 L38.3,-57.2 L38.8,-59.3 L39.4,-61.4 L40.2,-63.4 L41.1,-65.4 L42.1,-67.4 L43.2,-69.5 L44.3,-71.7 L45.0,-73.2" fill="none" stroke="#bcd4ff" stroke-linecap="round" stroke-width="2.3" opacity="0.80"/>
<path d="M43.2,-69.6 L44.1,-70.5 L45.4,-71.7 L46.6,-73.0 L47.6,-74.3 L48.6,-75.6 L49.6,-76.9 L50.7,-78.0 L52.0,-79.0 L53.2,-80.1 L54.3,-81.3 L55.3,-82.5 L56.3,-83.8 L57.2,-85.2 L58.1,-86.5 L59.0,-87.9 L60.1,-89.2 L61.4,-90.5 L62.2,-91.4" fill="none" stroke="#bcd4ff" stroke-linecap="round" stroke-width="1.3" opacity="0.65"/>
<path d="M58.1,-86.6 L58.5,-87.1 L59.1,-88.0 L59.7,-88.8 L60.3,-89.5 L60.9,-90.1 L61.6,-90.8 L62.3,-91.4 L63.0,-91.9 L63.8,-92.5 L64.5,-93.0 L65.2,-93.5 L66.0,-94.1 L66.8,-94.6 L67.5,-95.1 L68.3,-95.5 L69.2,-96.0 L70.1,-96.5 L70.8,-96.8" fill="none" stroke="#bcd4ff" stroke-linecap="round" stroke-width="0.8" opacity="0.50"/>
<path d="M40.8,-44.9 L42.3,-45.9 L44.5,-47.3 L46.6,-48.8 L48.5,-50.2 L50.4,-51.7 L52.2,-53.1 L54.1,-54.5 L56.0,-55.9 L57.7,-57.5 L59.2,-59.2 L60.6,-61.1 L62.0,-63.0 L63.6,-64.8 L65.1,-66.5 L66.7,-68.3 L68.4,-70.2 L70.0,-72.2 L71.2,-73.6" fill="none" stroke="#bcd4ff" stroke-linecap="round" stroke-width="2.3" opacity="0.80"/>
<path d="M61.4,-62.2 L62.0,-63.1 L62.8,-64.4 L63.6,-65.7 L64.3,-66.9 L65.0,-68.1 L65.7,-69.3 L66.4,-70.5 L67.1,-71.6 L67.8,-72.8 L68.6,-73.9 L69.4,-75.0 L70.2,-76.2 L71.0,-77.3 L71.7,-78.5 L72.4,-79.7 L73.0,-81.1 L73.6,-82.5 L74.0,-83.5" fill="none" stroke="#bcd4ff" stroke-linecap="round" stroke-width="1.3" opacity="0.65"/>
<path d="M67.6,-72.5 L67.6,-73.2 L67.6,-74.2 L67.5,-75.3 L67.3,-76.2 L67.0,-77.1 L66.8,-78.0 L66.8,-78.9 L66.9,-79.8 L66.9,-80.7 L66.7,-81.7 L66.5,-82.6 L66.3,-83.5 L66.2,-84.4 L66.0,-85.3 L65.8,-86.2 L65.5,-87.2 L65.3,-88.2 L65.1,-88.9" fill="none" stroke="#bcd4ff" stroke-linecap="round" stroke-width="0.8" opacity="0.50"/>
<path d="M68.0,-73.2 L67.9,-74.0 L67.8,-75.1 L67.5,-76.2 L67.1,-77.1 L66.6,-78.1 L66.2,-79.0 L65.8,-79.9 L65.4,-80.9 L65.0,-81.9 L64.7,-82.8 L64.4,-83.8 L64.2,-84.8 L64.1,-85.8 L63.9,-86.9 L63.8,-87.9 L63.7,-89.0 L63.6,-90.2 L63.5,-91.0" fill="none" stroke="#bcd4ff" stroke-linecap="round" stroke-width="0.8" opacity="0.50"/>
<path d="M11.2,-0.2 L14.1,0.5 L18.3,1.5 L22.4,2.5 L26.2,3.5 L29.9,4.6 L33.7,5.3 L37.5,5.5 L41.4,5.5 L45.2,5.6 L49.1,5.9 L52.9,6.5 L56.7,7.0 L60.5,7.5 L64.4,8.0 L68.2,8.4 L72.5,8.5 L76.8,8.5 L79.8,8.5" fill="none" stroke="#bcd4ff" stroke-linecap="round" stroke-width="3.8" opacity="0.95"/>
<path d="M45.5,5.6 L47.7,5.6 L50.9,5.7 L54.1,5.6 L57.0,5.2 L59.8,4.7 L62.6,4.0 L65.4,3.1 L68.1,2.1 L70.8,1.3 L73.7,0.9 L76.5,0.9 L79.4,0.6 L82.2,-0.0 L85.0,-0.8 L87.8,-1.4 L91.0,-1.8 L94.2,-2.0 L96.4,-2.1" fill="none" stroke="#bcd4ff" stroke-linecap="round" stroke-width="2.3" opacity="0.80"/>
<path d="M83.5,-0.4 L84.5,-1.2 L86.0,-2.5 L87.4,-3.9 L88.3,-5.3 L89.2,-6.8 L90.1,-8.3 L91.2,-9.7 L92.4,-11.0 L93.6,-12.3 L94.7,-13.7 L95.8,-15.0 L97.0,-16.3 L98.1,-17.6 L99.3,-18.9 L100.5,-20.2 L101.8,-21.7 L103.0,-23.2 L103.9,-24.2" fill="none" stroke="#bcd4ff" stroke-linecap="round" stroke-width="1.3" opacity="0.65"/>
<path d="M99.3,-18.9 L100.1,-19.1 L101.1,-19.4 L102.2,-19.8 L103.0,-20.3 L103.9,-20.8 L104.7,-21.4 L105.4,-22.0 L106.2,-22.7 L107.0,-23.3 L107.8,-23.8 L108.7,-24.3 L109.5,-24.8 L110.4,-25.3 L111.3,-25.8 L112.1,-26.3 L113.2,-26.7 L114.2,-27.0 L115.0,-27.2" fill="none" stroke="#bcd4ff" stroke-linecap="round" stroke-width="0.8" opacity="0.50"/>
<path d="M93.3,-1.9 L94.7,-2.3 L96.7,-2.9 L98.7,-3.6 L100.4,-4.5 L102.0,-5.5 L103.7,-6.5 L105.3,-7.5 L107.0,-8.4 L108.6,-9.4 L110.3,-10.3 L111.9,-11.3 L113.6,-12.2 L115.2,-13.1 L116.9,-14.0 L118.6,-14.9 L120.5,-15.8 L122.4,-16.7 L123.8,-17.3" fill="none" stroke="#bcd4ff" stroke-linecap="round" stroke-width="1.3" opacity="0.65"/>
<path d="M107.2,-8.5 L108.2,-9.1 L109.5,-9.9 L110.8,-10.7 L112.0,-11.6 L113.0,-12.6 L114.0,-13.6 L115.0,-14.6 L116.0,-15.7 L117.0,-16.6 L118.1,-17.5 L119.3,-18.3 L120.5,-19.1 L121.8,-19.7 L123.1,-20.2 L124.5,-20.6 L126.0,-20.8 L127.6,-21.0 L128.7,-21.2" fill="none" stroke="#bcd4ff" stroke-linecap="round" stroke-width="0.8" opacity="0.50"/>
<path d="M57.8,7.1 L58.9,5.4 L60.6,3.0 L62.4,0.6 L64.3,-1.2 L66.3,-3.0 L68.4,-4.7 L70.6,-6.3 L72.8,-7.7 L74.9,-9.4 L76.7,-11.3 L78.3,-13.4 L80.0,-15.5 L81.8,-17.5 L83.5,-19.5 L85.5,-21.3 L87.8,-23.1 L90.2,-24.8 L92.0,-26.0" fill="none" stroke="#bcd4ff" stroke-linecap="round" stroke-width="2.3" opacity="0.80"/>
<path d="M80.2,-15.7 L80.5,-17.1 L80.9,-19.1 L81.4,-21.0 L82.0,-22.7 L82.7,-24.3 L83.3,-26.0 L83.8,-27.7 L84.1,-29.5 L84.5,-31.2 L84.9,-33.0 L85.4,-34.7 L85.9,-36.4 L86.2,-38.2 L86.5,-39.9 L86.9,-41.7 L87.4,-43.6 L87.9,-45.6 L88.3,-46.9" fill="none" stroke="#bcd4ff" stroke-linecap="round" stroke-width="1.3" opacity="0.65"/>
<path d="M85.6,-35.6 L85.3,-36.4 L84.8,-37.5 L84.3,-38.5 L83.8,-39.4 L83.2,-40.3 L82.5,-41.2 L81.9,-42.0 L81.2,-42.9 L80.5,-43.7 L79.7,-44.4 L79.0,-45.2 L78.3,-46.0 L77.6,-46.9 L77.0,-47.8 L76.4,-48.7 L75.7,-49.6 L75.1,-50.6 L74.6,-51.3" fill="none" stroke="#bcd4ff" stroke-linecap="round" stroke-width="0.8" opacity="0.50"/>
<path d="M85.0,-33.1 L84.6,-34.0 L84.2,-35.3 L83.8,-36.6 L83.5,-37.7 L83.4,-38.9 L83.2,-40.1 L83.0,-41.3 L82.8,-42.5 L82.5,-43.7 L82.1,-44.8 L81.6,-45.9 L81.1,-47.0 L80.7,-48.1 L80.2,-49.3 L79.9,-50.4 L79.6,-51.7 L79.5,-53.1 L79.4,-54.0" fill="none" stroke="#bcd4ff" stroke-linecap="round" stroke-width="0.8" opacity="0.50"/>
<path d="M75.6,-10.1 L76.9,-10.2 L78.8,-10.4 L80.6,-10.6 L82.3,-10.7 L84.0,-10.8 L85.7,-11.0 L87.4,-11.2 L89.1,-11.5 L90.8,-11.7 L92.5,-11.7 L94.2,-11.5 L95.9,-11.4 L97.6,-11.3 L99.3,-11.1 L101.0,-11.1 L102.9,-11.3 L104.8,-11.5 L106.1,-11.7" fill="none" stroke="#bcd4ff" stroke-linecap="round" stroke-width="1.3" opacity="0.65"/>
<path d="M89.3,-11.5 L90.1,-12.0 L91.3,-12.7 L92.4,-13.4 L93.5,-13.9 L94.6,-14.4 L95.7,-14.9 L96.6,-15.7 L97.5,-16.5 L98.4,-17.3 L99.4,-17.9 L100.5,-18.5 L101.5,-19.1 L102.4,-19.9 L103.3,-20.7 L104.2,-21.5 L105.2,-22.3 L106.3,-23.2 L107.0,-23.8" fill="none" stroke="#bcd4ff" stroke-linecap="round" stroke-width="0.8" opacity="0.50"/>
<path d="M3.8,10.5 L5.5,13.6 L7.7,18.0 L9.8,22.5 L11.4,26.6 L12.8,30.8 L14.3,35.0 L16.1,39.1 L17.9,43.2 L19.7,47.3 L21.2,51.4 L22.6,55.7 L24.1,59.8 L25.8,63.9 L27.7,68.0 L29.7,72.0 L32.1,76.3 L34.6,80.5 L36.4,83.5" fill="none" stroke="#bcd4ff" stroke-linecap="round" stroke-width="3.8" opacity="0.95"/>
<path d="M21.6,52.7 L22.9,54.8 L24.8,57.8 L26.7,60.8 L28.6,63.5 L30.4,66.1 L32.2,68.8 L33.9,71.5 L35.6,74.3 L37.0,77.1 L38.1,80.1 L39.0,83.2 L40.1,86.3 L41.4,89.2 L42.8,92.1 L44.3,94.9 L46.0,98.0 L47.9,101.1 L49.1,103.2" fill="none" stroke="#bcd4ff" stroke-linecap="round" stroke-width="2.3" opacity="0.80"/>
<path d="M35.9,75.0 L36.7,76.0 L37.8,77.4 L38.8,78.8 L39.7,80.2 L40.4,81.7 L41.0,83.2 L41.4,84.7 L41.7,86.3 L42.0,87.9 L42.4,89.4 L42.8,91.0 L43.3,92.5 L43.8,94.1 L44.3,95.6 L44.6,97.2 L44.8,98.9 L44.9,100.7 L45.0,102.0" fill="none" stroke="#bcd4ff" stroke-linecap="round" stroke-width="1.3" opacity="0.65"/>
<path d="M42.4,89.5 L42.2,90.2 L41.9,91.1 L41.7,92.1 L41.5,93.0 L41.3,93.9 L41.2,94.8 L41.2,95.7 L41.3,96.6 L41.3,97.5 L41.2,98.4 L41.0,99.3 L40.7,100.2 L40.5,101.1 L40.3,102.0 L40.0,102.8 L39.5,103.8 L39.1,104.7 L38.8,105.3" fill="none" stroke="#bcd4ff" stroke-linecap="round" stroke-width="0.8" opacity="0.50"/>
<path d="M44.5,95.3 L45.3,96.6 L46.5,98.5 L47.7,100.4 L49.0,102.0 L50.2,103.5 L51.4,105.2 L52.5,106.9 L53.5,108.6 L54.3,110.5 L55.0,112.4 L55.6,114.3 L55.9,116.3 L56.0,118.3 L56.0,120.3 L56.0,122.3 L56.4,124.5 L56.9,126.7 L57.3,128.3" fill="none" stroke="#bcd4ff" stroke-linecap="round" stroke-width="1.3" opacity="0.65"/>
<path d="M54.0,109.8 L54.7,110.7 L55.7,112.0 L56.6,113.2 L57.4,114.4 L58.1,115.7 L58.8,116.9 L59.6,118.1 L60.3,119.3 L61.0,120.6 L61.8,121.8 L62.5,123.0 L63.3,124.2 L64.1,125.4 L64.9,126.5 L65.7,127.7 L66.6,129.0 L67.5,130.3 L68.1,131.3" fill="none" stroke="#bcd4ff" stroke-linecap="round" stroke-width="0.8" opacity="0.50"/>
<path d="M56.7,125.9 L57.4,126.4 L58.4,127.1 L59.3,127.8 L60.0,128.6 L60.7,129.5 L61.4,130.3 L62.3,131.0 L63.1,131.6 L64.0,132.3 L64.8,133.0 L65.5,133.8 L66.3,134.6 L66.9,135.5 L67.4,136.5 L68.0,137.3 L68.9,138.2 L69.8,139.0 L70.4,139.5" fill="none" stroke="#bcd4ff" stroke-linecap="round" stroke-width="0.8" opacity="0.50"/>
<path d="M30.3,73.1 L30.4,75.5 L30.7,79.0 L31.0,82.5 L31.5,85.6 L32.1,88.8 L32.9,91.8 L33.9,94.8 L35.2,97.7 L36.5,100.6 L37.7,103.5 L39.0,106.4 L40.3,109.3 L41.8,112.0 L43.4,114.8 L45.1,117.5 L46.8,120.5 L48.6,123.5 L49.8,125.7" fill="none" stroke="#bcd4ff" stroke-linecap="round" stroke-width="2.3" opacity="0.80"/>
<path d="M37.7,103.4 L37.4,104.7 L37.0,106.6 L36.4,108.4 L35.7,110.0 L35.0,111.6 L34.2,113.1 L33.5,114.7 L32.8,116.2 L32.2,117.9 L31.6,119.5 L31.2,121.2 L30.8,122.8 L30.6,124.5 L30.4,126.3 L30.4,128.0 L30.6,129.9 L31.0,131.8 L31.3,133.1" fill="none" stroke="#bcd4ff" stroke-linecap="round" stroke-width="1.3" opacity="0.65"/>
<path d="M30.7,130.1 L31.5,130.6 L32.8,131.3 L34.0,132.0 L35.1,132.6 L36.2,133.2 L37.4,133.7 L38.6,134.2 L39.8,134.7 L40.9,135.1 L42.1,135.6 L43.3,136.0 L44.5,136.4 L45.7,136.9 L46.9,137.3 L48.1,137.6 L49.5,137.8 L50.9,137.8 L51.9,137.8" fill="none" stroke="#bcd4ff" stroke-linecap="round" stroke-width="0.8" opacity="0.50"/>
<path d="M32.6,116.6 L33.3,117.0 L34.2,117.6 L35.2,118.1 L36.1,118.5 L37.0,118.8 L38.0,119.1 L38.9,119.5 L39.8,119.8 L40.8,120.1 L41.7,120.4 L42.7,120.7 L43.6,121.0 L44.4,121.5 L45.2,122.1 L46.0,122.7 L47.0,123.2 L47.9,123.8 L48.6,124.2" fill="none" stroke="#bcd4ff" stroke-linecap="round" stroke-width="0.8" opacity="0.50"/>
<path d="M46.8,120.5 L46.7,122.3 L46.5,124.8 L46.2,127.3 L46.0,129.6 L45.7,131.8 L45.4,134.1 L45.1,136.3 L44.8,138.6 L44.2,140.8 L43.3,142.9 L42.3,144.9 L41.3,146.9 L40.7,149.1 L40.1,151.3 L39.4,153.5 L38.2,155.7 L36.8,157.8 L35.8,159.3" fill="none" stroke="#bcd4ff" stroke-linecap="round" stroke-width="1.3" opacity="0.65"/>
<path d="M42.7,144.2 L42.5,145.1 L42.4,146.5 L42.3,147.9 L42.5,149.1 L42.7,150.4 L43.0,151.6 L43.1,152.9 L43.3,154.1 L43.4,155.3 L43.6,156.6 L43.8,157.8 L43.9,159.1 L43.9,160.3 L43.8,161.6 L43.8,162.8 L44.0,164.2 L44.2,165.6 L44.3,166.5" fill="none" stroke="#bcd4ff" stroke-linecap="round" stroke-width="0.8" opacity="0.50"/>
<path d="M-7.4,8.4 L-10.0,10.7 L-13.7,14.1 L-17.6,17.3 L-21.2,19.9 L-24.9,22.4 L-28.7,24.9 L-32.4,27.5 L-36.1,30.1 L-39.9,32.4 L-43.8,34.5 L-47.9,36.5 L-52.1,38.2 L-56.3,39.6 L-60.7,40.9 L-64.9,42.5 L-69.1,45.0 L-73.2,48.0 L-76.0,50.1" fill="none" stroke="#bcd4ff" stroke-linecap="round" stroke-width="3.8" opacity="0.95"/>
<path d="M-56.8,39.7 L-58.3,41.4 L-60.5,43.6 L-62.9,45.7 L-65.3,47.2 L-67.9,48.5 L-70.4,50.0 L-72.6,51.7 L-74.9,53.5 L-77.1,55.2 L-79.5,56.8 L-81.9,58.3 L-84.4,59.7 L-87.0,61.0 L-89.6,62.0 L-92.3,63.1 L-95.2,64.4 L-98.1,65.7 L-100.1,66.7" fill="none" stroke="#bcd4ff" stroke-linecap="round" stroke-width="2.3" opacity="0.80"/>
<path d="M-91.0,62.6 L-92.2,63.3 L-94.0,64.3 L-95.7,65.3 L-97.3,66.2 L-98.8,67.1 L-100.4,68.1 L-101.9,69.1 L-103.4,70.1 L-104.8,71.1 L-106.3,72.2 L-107.7,73.4 L-109.1,74.5 L-110.6,75.5 L-112.1,76.5 L-113.6,77.6 L-115.2,78.8 L-116.7,80.1 L-117.8,81.0" fill="none" stroke="#bcd4ff" stroke-linecap="round" stroke-width="1.3" opacity="0.65"/>
<path d="M-110.9,75.7 L-110.8,76.7 L-110.7,78.1 L-110.6,79.6 L-110.5,80.8 L-110.4,82.1 L-110.4,83.4 L-110.4,84.7 L-110.5,86.0 L-110.8,87.3 L-111.2,88.5 L-111.7,89.7 L-112.2,90.9 L-112.6,92.1 L-113.0,93.3 L-113.3,94.6 L-113.3,96.0 L-113.3,97.5 L-113.3,98.5" fill="none" stroke="#bcd4ff" stroke-linecap="round" stroke-width="0.8" opacity="0.50"/>
<path d="M-110.0,75.1 L-110.6,75.7 L-111.5,76.7 L-112.3,77.7 L-113.0,78.6 L-113.7,79.6 L-114.4,80.5 L-115.2,81.4 L-116.0,82.2 L-116.9,83.0 L-117.8,83.7 L-118.8,84.4 L-119.7,85.0 L-120.7,85.7 L-121.6,86.4 L-122.6,87.1 L-123.7,87.8 L-124.8,88.4 L-125.6,88.9" fill="none" stroke="#bcd4ff" stroke-linecap="round" stroke-width="0.8" opacity="0.50"/>
<path d="M-66.5,43.5 L-68.6,43.5 L-71.7,43.5 L-74.8,43.4 L-77.6,43.4 L-80.3,43.2 L-83.0,42.9 L-85.7,42.1 L-88.3,41.2 L-90.9,40.1 L-93.4,39.0 L-95.9,37.8 L-98.3,36.5 L-100.6,34.9 L-102.7,33.1 L-104.6,31.1 L-106.5,28.7 L-108.2,26.1 L-109.4,24.3" fill="none" stroke="#bcd4ff" stroke-linecap="round" stroke-width="2.3" opacity="0.80"/>
<path d="M-106.7,28.5 L-106.7,27.3 L-106.8,25.8 L-107.0,24.2 L-107.1,22.8 L-107.3,21.4 L-107.6,20.0 L-107.8,18.6 L-108.1,17.2 L-108.3,15.8 L-108.2,14.4 L-108.1,12.9 L-107.9,11.5 L-107.7,10.1 L-107.5,8.7 L-107.4,7.3 L-107.5,5.7 L-107.7,4.2 L-107.8,3.1" fill="none" stroke="#bcd4ff" stroke-linecap="round" stroke-width="1.3" opacity="0.65"/>
<path d="M-108.2,16.2 L-107.9,15.6 L-107.4,14.6 L-106.9,13.6 L-106.7,12.7 L-106.5,11.7 L-106.3,10.8 L-106.2,9.8 L-106.0,8.9 L-105.9,7.9 L-105.7,6.9 L-105.6,6.0 L-105.4,5.0 L-105.2,4.1 L-104.9,3.1 L-104.7,2.2 L-104.4,1.2 L-104.1,0.1 L-103.9,-0.6" fill="none" stroke="#bcd4ff" stroke-linecap="round" stroke-width="0.8" opacity="0.50"/>
<path d="M-11.1,1.2 L-14.3,2.2 L-18.9,3.7 L-23.6,4.9 L-27.8,5.8 L-32.0,6.4 L-36.3,7.0 L-40.6,7.3 L-44.9,7.5 L-49.3,7.8 L-53.6,8.1 L-57.9,8.4 L-62.2,8.7 L-66.5,9.0 L-70.8,9.4 L-75.0,10.1 L-79.6,11.6 L-84.0,13.5 L-87.1,14.8" fill="none" stroke="#bcd4ff" stroke-linecap="round" stroke-width="3.8" opacity="0.95"/>
<path d="M-59.6,8.5 L-61.6,8.6 L-64.4,8.7 L-67.3,8.8 L-69.8,9.0 L-72.4,9.2 L-74.9,9.6 L-77.4,10.4 L-79.8,11.2 L-82.2,12.0 L-84.8,12.5 L-87.3,12.8 L-89.8,13.4 L-92.2,14.3 L-94.5,15.4 L-96.8,16.5 L-99.4,17.7 L-102.0,19.0 L-103.8,19.9" fill="none" stroke="#bcd4ff" stroke-linecap="round" stroke-width="2.3" opacity="0.80"/>
<path d="M-91.2,13.9 L-92.4,14.7 L-94.1,15.8 L-95.7,16.9 L-97.1,18.0 L-98.4,19.1 L-99.9,20.2 L-101.3,21.2 L-102.9,22.1 L-104.4,23.1 L-105.8,24.1 L-107.3,25.2 L-108.8,26.2 L-110.3,27.0 L-112.0,27.7 L-113.6,28.4 L-115.4,29.3 L-117.2,30.1 L-118.4,30.7" fill="none" stroke="#bcd4ff" stroke-linecap="round" stroke-width="1.3" opacity="0.65"/>
<path d="M-114.8,29.0 L-115.3,29.8 L-115.9,30.9 L-116.5,32.0 L-116.9,33.1 L-117.2,34.2 L-117.5,35.3 L-118.0,36.3 L-118.6,37.3 L-119.1,38.3 L-119.6,39.4 L-120.0,40.4 L-120.4,41.5 L-120.7,42.6 L-120.9,43.7 L-121.1,44.9 L-121.4,46.1 L-121.6,47.4 L-121.7,48.2" fill="none" stroke="#bcd4ff" stroke-linecap="round" stroke-width="0.8" opacity="0.50"/>
<path d="M-48.5,7.7 L-49.9,6.7 L-51.8,5.2 L-53.9,3.8 L-55.7,2.6 L-57.6,1.4 L-59.5,0.2 L-61.3,-1.2 L-63.0,-2.6 L-64.5,-4.2 L-65.9,-5.9 L-67.1,-7.8 L-68.4,-9.6 L-69.7,-11.4 L-71.0,-13.2 L-72.3,-15.0 L-73.8,-17.0 L-75.3,-19.0 L-76.3,-20.3" fill="none" stroke="#bcd4ff" stroke-linecap="round" stroke-width="2.3" opacity="0.80"/>
<path d="M-68.6,-10.0 L-69.2,-10.9 L-70.0,-12.2 L-71.0,-13.5 L-72.0,-14.4 L-73.1,-15.3 L-74.2,-16.2 L-75.2,-17.2 L-76.2,-18.2 L-77.2,-19.2 L-78.3,-20.0 L-79.5,-20.8 L-80.7,-21.6 L-81.6,-22.6 L-82.5,-23.8 L-83.4,-24.9 L-84.5,-26.0 L-85.5,-27.1 L-86.3,-27.9" fill="none" stroke="#bcd4ff" stroke-linecap="round" stroke-width="1.3" opacity="0.65"/>
<path d="M-81.9,-23.0 L-82.7,-23.4 L-83.8,-23.8 L-84.9,-24.2 L-85.9,-24.4 L-87.0,-24.4 L-88.0,-24.6 L-89.0,-24.9 L-90.0,-25.3 L-91.0,-25.6 L-92.1,-25.8 L-93.1,-25.8 L-94.2,-25.9 L-95.2,-25.9 L-96.3,-26.0 L-97.3,-26.1 L-98.5,-26.3 L-99.6,-26.5 L-100.4,-26.7" fill="none" stroke="#bcd4ff" stroke-linecap="round" stroke-width="0.8" opacity="0.50"/>
<path d="M15.5,4.0 L20.9,6.0 L28.6,8.9 L37.2,12.2 L45.3,15.7 L52.4,19.4 L59.3,23.3 L66.3,27.3 L73.4,31.0 L80.6,34.4 L88.0,37.5 L95.4,40.5 L102.9,43.3 L110.5,45.7 L118.3,47.8 L126.0,49.9 L133.6,52.3 L141.1,55.0 L148.6,58.0 L156.0,61.0 L163.5,63.8 L171.0,66.5 L178.6,69.0 L186.2,71.5 L193.7,74.2 L201.2,77.1 L208.7,80.0 L216.1,83.1 L223.3,86.4 L230.4,90.2 L237.3,94.2 L244.1,98.4 L250.9,102.7 L257.6,107.0 L264.2,111.5 L270.8,116.0 L277.5,120.4 L284.9,125.1 L292.8,129.9 L299.8,134.3 L304.7,137.3" fill="none" stroke="#bcd4ff" stroke-width="2.4"/>
<path d="M17.2,0.0 L16.7,2.0 L15.7,4.0 L14.5,5.9 L13.3,7.7 L12.0,9.3 L10.7,10.9 L9.3,12.3 L7.7,13.4 L6.0,14.1 L4.1,14.5 L2.1,14.7 L0.0,14.9 L-2.2,15.3 L-4.6,15.8 L-6.9,15.9 L-8.9,15.4 L-10.4,14.1 L-11.6,12.2 L-12.7,10.0 L-13.8,7.9 L-15.0,6.0 L-16.3,4.0 L-17.4,2.0 L-17.8,0.0 L-17.2,-2.0 L-16.0,-3.9 L-14.5,-5.8 L-13.1,-7.6 L-11.9,-9.2 L-10.6,-10.7 L-9.3,-12.1 L-7.8,-13.4 L-6.0,-14.8 L-4.0,-16.1 L-2.0,-17.1 L-0.0,-17.5 L1.9,-16.9 L3.7,-15.6 L5.5,-14.0 L7.3,-12.6 L9.3,-11.7 L11.4,-10.8 L13.3,-9.9 L14.8,-8.6 L15.9,-6.7 L16.7,-4.5 L17.2,-2.2 L17.2,0.0 Z" fill="#bcd4ff"/>

</svg>
